<svg width="44" height="44" viewBox="0 0 44 44" fill="none" xmlns="http://www.w3.org/2000/svg">
<rect width="44" height="44" rx="22" fill="#3F4FD9"/>
<path fill-rule="evenodd" clip-rule="evenodd" d="M19.429 17.969H23.143V19.819C23.678 18.755 25.05 17.799 27.111 17.799C31.062 17.799 32 19.917 32 23.803V31H28V24.688C28 22.475 27.465 21.227 26.103 21.227C24.214 21.227 23.429 22.572 23.429 24.687V31H19.429V17.969ZM12.57 30.83H16.57V17.799H12.57V30.83ZM17.143 13.55C17.1431 13.8853 17.0767 14.2172 16.9474 14.5266C16.8181 14.8359 16.6287 15.1165 16.39 15.352C15.9064 15.8326 15.2518 16.1017 14.57 16.1C13.8894 16.0995 13.2363 15.8312 12.752 15.353C12.5142 15.1167 12.3254 14.8358 12.1963 14.5264C12.0673 14.217 12.0006 13.8852 12 13.55C12 12.873 12.27 12.225 12.753 11.747C13.2369 11.2682 13.8902 10.9997 14.571 11C15.253 11 15.907 11.269 16.39 11.747C16.872 12.225 17.143 12.873 17.143 13.55Z" fill="white"/>
</svg>
