<svg width="126" height="32" viewBox="0 0 126 32" fill="none" xmlns="http://www.w3.org/2000/svg">
<path d="M47.7013 8.70569H52.0346V28.5743H47.7013V20.3571H39.4345V28.5743H35.0171V8.70569H39.4345V16.6489H47.7013V8.70569Z" fill="white"/>
<path d="M54.4536 10.2648C54.4536 9.69596 54.664 9.10602 55.1057 8.68463C55.5264 8.24217 56.1154 7.96826 56.6833 7.96826C57.3354 7.96826 57.8403 8.17896 58.3241 8.68463C58.7448 9.12709 58.9762 9.69596 58.9762 10.2648C58.9762 10.8337 58.7658 11.4237 58.3241 11.8451C57.9034 12.2875 57.3144 12.4982 56.6833 12.4982C56.1154 12.4982 55.5264 12.2875 55.1057 11.8451C54.685 11.4237 54.4536 10.8548 54.4536 10.2648ZM54.8954 28.5532V14.2259H58.5555V28.5532H54.8954Z" fill="white"/>
<path d="M71.7869 17.7235H81.9048V19.2827C81.9048 22.1692 80.9793 24.5079 79.1282 26.2988C77.2771 28.0898 74.9001 28.9747 71.9762 28.9747C68.863 28.9747 66.2756 27.9633 64.2142 25.9407C62.1738 23.8969 61.1641 21.4107 61.1641 18.482C61.1641 15.5323 62.1738 13.0461 64.1931 11.0024C66.2336 8.9586 68.7578 7.94727 71.7448 7.94727C73.6169 7.94727 75.3208 8.36866 76.8774 9.21144C78.434 10.0542 79.654 11.213 80.5375 12.6458L77.1298 14.6052C76.646 13.7835 75.9098 13.1093 74.9421 12.5826C73.9535 12.0558 72.8807 11.803 71.7027 11.803C69.7675 11.803 68.1688 12.4351 66.9488 13.6993C65.7287 14.9213 65.0976 16.5226 65.0976 18.461C65.0976 20.3572 65.7287 21.9374 66.9698 23.2016C68.2109 24.4237 69.8937 25.0557 71.9972 25.0557C73.5117 25.0557 74.7739 24.7186 75.8046 24.0444C76.8143 23.3702 77.5084 22.422 77.8871 21.2211H71.7658V17.7235H71.7869Z" fill="white"/>
<path d="M94.9043 14.2259H98.5645V28.5532H94.9043V26.8887C93.7474 28.2583 92.2539 28.9746 90.2345 28.9746C88.2993 28.9746 86.7216 28.2583 85.3543 26.8045C83.9871 25.3507 83.335 23.5597 83.335 21.4106C83.335 19.3248 84.0502 17.5128 85.3543 16.0801C86.7216 14.6473 88.3624 13.8467 90.2345 13.8467C92.2539 13.8467 93.7474 14.563 94.9043 15.9326V14.2259ZM93.7474 24.3182C94.5467 23.5176 94.9043 22.5905 94.9043 21.3685C94.9043 20.2097 94.5467 19.1983 93.7474 18.482C93.0322 17.6813 92.1067 17.3232 90.9497 17.3232C89.7928 17.3232 88.8672 17.6813 88.152 18.482C87.4368 19.1983 86.9951 20.2097 86.9951 21.3685C86.9951 22.5273 87.3527 23.5387 88.152 24.3182C88.8672 25.0346 89.7928 25.4771 90.9497 25.4771C92.1067 25.4771 93.0322 25.0346 93.7474 24.3182Z" fill="white"/>
<path d="M109.545 17.7657H106.305V23.7494C106.305 24.4658 106.6 24.9082 107.168 25.1189C107.589 25.2664 108.388 25.2664 109.545 25.2664V28.6586C107.042 28.9536 105.233 28.7218 104.244 27.9422C103.171 27.2259 102.666 25.8564 102.666 23.8337V17.8289H100.163V14.3102H102.666V11.4237L106.326 10.2649V14.2892H109.566V17.7657H109.545Z" fill="white"/>
<path d="M114.194 22.9488C114.699 24.7397 115.982 25.6035 118.211 25.6035C119.579 25.6035 120.715 25.0979 121.451 24.1708L124.396 25.8985C123.029 27.9212 120.883 28.9957 118.148 28.9957C115.771 28.9957 113.92 28.2794 112.469 26.8256C111.017 25.3718 110.323 23.5809 110.323 21.4318C110.323 19.2616 111.038 17.5339 112.406 16.038C113.773 14.6052 115.645 13.8678 117.854 13.8678C119.936 13.8678 121.661 14.5842 123.029 16.038C124.396 17.4918 125.111 19.2827 125.111 21.4318C125.111 21.8742 125.048 22.3588 124.964 22.9488H114.194ZM121.451 20.0622C121.03 18.1238 119.873 17.1757 117.938 17.1757C115.919 17.1757 114.635 18.1871 114.215 20.0622H121.451Z" fill="white"/>
<path d="M15.3281 8.38967H9.29095C8.74403 8.38967 8.32333 7.92614 8.32333 7.39941V1.77384C8.32333 1.26817 7.90262 0.888916 7.43985 0.888916H1.54998C1.08721 0.888916 0.666504 1.31031 0.666504 1.77384V7.69438C0.666504 8.20005 1.08721 8.5793 1.54998 8.5793H7.08225C7.62917 8.5793 8.04987 9.04283 8.04987 9.56957V14.7737C8.04987 15.3426 7.5871 15.764 7.08225 15.764H1.54998C1.04514 15.764 0.666504 16.1854 0.666504 16.6489V23.4965V30.0702C0.666504 30.6813 1.21342 31.1026 1.78137 30.9552L7.62917 29.5435C8.04987 29.4592 8.32333 29.08 8.32333 28.6586V23.5387V17.1125C8.32333 16.5436 8.7861 16.1222 9.29095 16.1222H14.8232C15.3281 16.1222 15.7067 16.5436 15.7067 17.0071V23.8547V28.7007C15.7067 29.1221 15.9802 29.5014 16.4009 29.5856L22.2487 31.0816C22.7956 31.2291 23.3635 30.8077 23.3635 30.1967V23.8126V16.5015C23.3635 16.2697 23.2794 16.0379 23.0901 15.8483L15.9802 8.62144C15.8329 8.49502 15.6015 8.38967 15.3281 8.38967Z" fill="white"/>
</svg>
