<svg width="44" height="44" viewBox="0 0 44 44" fill="none" xmlns="http://www.w3.org/2000/svg">
<rect width="44" height="44" rx="22" fill="#3F4FD9"/>
<path d="M30 30H14C13.4696 30 12.9609 29.7893 12.5858 29.4142C12.2107 29.0391 12 28.5304 12 28V15.913C12.0224 15.3978 12.243 14.9112 12.6157 14.5547C12.9883 14.1982 13.4843 13.9995 14 14H30C30.5304 14 31.0391 14.2107 31.4142 14.5858C31.7893 14.9609 32 15.4696 32 16V28C32 28.5304 31.7893 29.0391 31.4142 29.4142C31.0391 29.7893 30.5304 30 30 30ZM14 17.868V28H30V17.868L22 23.2L14 17.868ZM14.8 16L22 20.8L29.2 16H14.8Z" fill="white"/>
</svg>
